<?xml version="1.0" encoding="UTF-8"?>
<svg xmlns="http://www.w3.org/2000/svg" xmlns:xlink="http://www.w3.org/1999/xlink" width="283.307pt" height="70.974pt" viewBox="21.667 21.666 283.307 70.974" version="1.2">
<g id="surface1">
<path style=" stroke:none;fill-rule:nonzero;fill:rgb(13.729858%,12.159729%,12.548828%);fill-opacity:1;" d="M 48.507812 90.542969 L 69.863281 90.542969 L 69.863281 42.9375 L 48.507812 42.9375 Z M 48.507812 90.542969 "/>
<path style=" stroke:none;fill-rule:nonzero;fill:rgb(13.729858%,12.159729%,12.548828%);fill-opacity:1;" d="M 22.039062 90.542969 L 43.394531 90.542969 L 43.394531 21.59375 L 22.039062 21.59375 Z M 22.039062 90.542969 "/>
<path style=" stroke:none;fill-rule:nonzero;fill:rgb(13.729858%,12.159729%,12.548828%);fill-opacity:1;" d="M 95.191406 80.984375 C 95.191406 74.707031 90.113281 69.570312 83.800781 69.570312 C 77.597656 69.570312 72.523438 74.707031 72.523438 80.984375 C 72.523438 87.261719 77.597656 92.28125 83.800781 92.28125 C 90.113281 92.28125 95.191406 87.261719 95.191406 80.984375 "/>
<path style=" stroke:none;fill-rule:nonzero;fill:rgb(13.729858%,12.159729%,12.548828%);fill-opacity:1;" d="M 122.585938 42.9375 L 122.585938 70.566406 C 122.585938 73.011719 121.578125 74.238281 119.558594 74.238281 C 117.515625 74.238281 116.492188 73.011719 116.492188 70.566406 L 116.492188 42.9375 L 95.195312 42.9375 L 95.195312 65.246094 C 95.195312 73.105469 97.039062 79.246094 100.730469 83.667969 C 105.480469 89.335938 111.753906 91.90625 119.539062 91.90625 C 127.324219 91.90625 133.59375 89.335938 138.34375 83.667969 C 142.039062 79.246094 143.882812 73.105469 143.882812 65.246094 L 143.882812 42.9375 Z M 122.585938 42.9375 "/>
<path style=" stroke:none;fill-rule:nonzero;fill:rgb(13.729858%,12.159729%,12.548828%);fill-opacity:1;" d="M 187.777344 90.542969 L 186.085938 90.542969 L 186.058594 90.496094 L 176.09375 73.75 L 176.09375 90.542969 L 174.214844 90.542969 L 174.214844 70.113281 L 175.882812 70.113281 L 175.910156 70.160156 L 185.902344 86.964844 L 185.902344 70.113281 L 187.777344 70.113281 Z M 187.777344 90.542969 "/>
<path style=" stroke:none;fill-rule:nonzero;fill:rgb(13.729858%,12.159729%,12.548828%);fill-opacity:1;" d="M 204.703125 90.542969 L 202.90625 90.542969 L 202.882812 90.480469 L 196.214844 70.113281 L 198.1875 70.113281 L 198.210938 70.175781 L 203.804688 87.574219 L 209.449219 70.113281 L 211.425781 70.113281 L 211.382812 70.234375 Z M 204.703125 90.542969 "/>
<path style=" stroke:none;fill-rule:nonzero;fill:rgb(13.729858%,12.159729%,12.548828%);fill-opacity:1;" d="M 162.84375 90.769531 C 158.800781 90.769531 155.976562 87.839844 155.976562 83.644531 L 155.976562 70.117188 L 157.851562 70.117188 L 157.851562 83.699219 C 157.851562 86.84375 159.859375 88.949219 162.84375 88.949219 C 165.828125 88.949219 167.832031 86.84375 167.832031 83.699219 L 167.832031 70.117188 L 169.710938 70.117188 L 169.710938 83.644531 C 169.710938 87.839844 166.886719 90.769531 162.84375 90.769531 "/>
<path style=" stroke:none;fill-rule:nonzero;fill:rgb(13.729858%,12.159729%,12.548828%);fill-opacity:1;" d="M 194.058594 90.542969 L 192.183594 90.542969 L 192.183594 70.113281 L 194.058594 70.113281 Z M 194.058594 90.542969 "/>
<path style=" stroke:none;fill-rule:nonzero;fill:rgb(13.729858%,12.159729%,12.548828%);fill-opacity:1;" d="M 229.527344 82.285156 L 233.457031 82.285156 C 236.671875 82.285156 238.589844 80.527344 238.589844 77.582031 L 238.589844 76.777344 C 238.589844 73.671875 236.765625 71.960938 233.457031 71.960938 L 229.527344 71.960938 Z M 240.507812 90.539062 L 238.234375 90.539062 L 238.207031 90.503906 L 233.324219 84.105469 L 229.527344 84.105469 L 229.527344 90.539062 L 227.648438 90.539062 L 227.648438 70.109375 L 233.601562 70.109375 C 237.835938 70.109375 240.46875 72.6875 240.46875 76.835938 L 240.46875 77.582031 C 240.46875 80.941406 238.523438 83.253906 235.261719 83.792969 Z M 240.507812 90.539062 "/>
<path style=" stroke:none;fill-rule:nonzero;fill:rgb(13.729858%,12.159729%,12.548828%);fill-opacity:1;" d="M 261.535156 90.539062 L 259.65625 90.539062 L 259.65625 70.109375 L 261.535156 70.109375 Z M 261.535156 90.539062 "/>
<path style=" stroke:none;fill-rule:nonzero;fill:rgb(13.729858%,12.159729%,12.548828%);fill-opacity:1;" d="M 270.949219 90.539062 L 269.074219 90.539062 L 269.074219 71.960938 L 263.476562 71.960938 L 263.476562 70.109375 L 276.492188 70.109375 L 276.492188 71.960938 L 270.949219 71.960938 Z M 270.949219 90.539062 "/>
<path style=" stroke:none;fill-rule:nonzero;fill:rgb(13.729858%,12.159729%,12.548828%);fill-opacity:1;" d="M 289.921875 90.539062 L 278.511719 90.539062 L 278.511719 70.109375 L 289.488281 70.109375 L 289.488281 71.960938 L 280.390625 71.960938 L 280.390625 79.355469 L 287.222656 79.355469 L 287.222656 81.0625 L 280.390625 81.0625 L 280.390625 88.71875 L 289.921875 88.71875 Z M 289.921875 90.539062 "/>
<path style=" stroke:none;fill-rule:nonzero;fill:rgb(13.729858%,12.159729%,12.548828%);fill-opacity:1;" d="M 224.898438 90.542969 L 213.488281 90.542969 L 213.488281 70.113281 L 224.636719 70.113281 L 224.636719 71.964844 L 215.363281 71.964844 L 215.363281 79.359375 L 222.199219 79.359375 L 222.199219 81.066406 L 215.363281 81.066406 L 215.363281 88.71875 L 224.898438 88.71875 Z M 224.898438 90.542969 "/>
<path style=" stroke:none;fill-rule:nonzero;fill:rgb(13.729858%,12.159729%,12.548828%);fill-opacity:1;" d="M 298.605469 90.539062 L 296.726562 90.539062 L 296.726562 71.960938 L 291.386719 71.960938 L 291.386719 70.109375 L 304.230469 70.109375 L 304.230469 71.960938 L 298.605469 71.960938 Z M 298.605469 90.539062 "/>
<path style=" stroke:none;fill-rule:nonzero;fill:rgb(13.729858%,12.159729%,12.548828%);fill-opacity:1;" d="M 249.871094 79.511719 C 247.191406 78.839844 244.660156 78.203125 244.660156 75.34375 C 244.660156 72.992188 246.265625 71.585938 249.171875 71.585938 C 251.394531 71.585938 253.753906 72.855469 253.867188 76.378906 L 255.75 76.378906 C 255.636719 71.511719 252.332031 69.769531 249.230469 69.769531 C 245.191406 69.769531 242.8125 71.902344 242.8125 75.34375 C 242.8125 79.570312 246.183594 80.425781 249.164062 81.179688 C 251.757812 81.832031 254.210938 82.449219 254.210938 85.132812 C 254.210938 88.050781 251.675781 89.089844 249.304688 89.089844 C 246.199219 89.089844 244.34375 87.066406 244.34375 83.671875 L 244.34375 83.578125 L 242.496094 83.578125 L 242.496094 83.671875 C 242.496094 88.050781 245.167969 90.882812 249.304688 90.882812 C 253.425781 90.882812 256.085938 88.617188 256.085938 85.105469 C 256.085938 81.070312 252.925781 80.277344 249.871094 79.511719 "/>
<path style=" stroke:none;fill-rule:nonzero;fill:rgb(13.729858%,12.159729%,12.548828%);fill-opacity:1;" d="M 188.839844 63.363281 L 187.148438 63.363281 L 187.121094 63.316406 L 177.15625 46.566406 L 177.15625 63.363281 L 175.277344 63.363281 L 175.277344 42.933594 L 176.945312 42.933594 L 176.972656 42.980469 L 186.960938 59.785156 L 186.960938 42.933594 L 188.839844 42.933594 Z M 188.839844 63.363281 "/>
<path style=" stroke:none;fill-rule:nonzero;fill:rgb(13.729858%,12.159729%,12.548828%);fill-opacity:1;" d="M 260.5625 63.363281 L 258.867188 63.363281 L 258.84375 63.316406 L 248.878906 46.566406 L 248.878906 63.363281 L 247 63.363281 L 247 42.933594 L 248.667969 42.933594 L 248.691406 42.980469 L 258.683594 59.785156 L 258.683594 42.933594 L 260.5625 42.933594 Z M 260.5625 63.363281 "/>
<path style=" stroke:none;fill-rule:nonzero;fill:rgb(13.729858%,12.159729%,12.548828%);fill-opacity:1;" d="M 167.039062 63.363281 L 156.261719 63.363281 L 156.261719 42.933594 L 158.140625 42.933594 L 158.140625 61.539062 L 167.039062 61.539062 Z M 167.039062 63.363281 "/>
<path style=" stroke:none;fill-rule:nonzero;fill:rgb(13.729858%,12.159729%,12.548828%);fill-opacity:1;" d="M 171.132812 63.363281 L 169.253906 63.363281 L 169.253906 42.933594 L 171.132812 42.933594 Z M 171.132812 63.363281 "/>
<path style=" stroke:none;fill-rule:nonzero;fill:rgb(13.729858%,12.159729%,12.548828%);fill-opacity:1;" d="M 211.464844 41.734375 C 210.84375 41.734375 210.320312 41.210938 210.320312 40.59375 C 210.320312 39.972656 210.84375 39.449219 211.464844 39.449219 C 212.082031 39.449219 212.605469 39.972656 212.605469 40.59375 C 212.605469 41.210938 212.082031 41.734375 211.464844 41.734375 M 216.695312 41.734375 C 216.074219 41.734375 215.550781 41.210938 215.550781 40.59375 C 215.550781 39.972656 216.074219 39.449219 216.695312 39.449219 C 217.316406 39.449219 217.839844 39.972656 217.839844 40.59375 C 217.839844 41.210938 217.316406 41.734375 216.695312 41.734375 M 214.078125 44.4375 C 211.09375 44.4375 209.089844 46.550781 209.089844 49.6875 L 209.089844 56.519531 C 209.089844 59.660156 211.09375 61.769531 214.078125 61.769531 C 217.066406 61.769531 219.070312 59.660156 219.070312 56.519531 L 219.070312 49.714844 C 219.070312 46.558594 217.066406 44.4375 214.078125 44.4375 M 214.078125 63.589844 C 210.035156 63.589844 207.210938 60.660156 207.210938 56.464844 L 207.210938 49.773438 C 207.210938 45.5625 210.035156 42.621094 214.078125 42.621094 C 218.121094 42.621094 220.945312 45.5625 220.945312 49.773438 L 220.945312 56.464844 C 220.945312 60.660156 218.121094 63.589844 214.078125 63.589844 "/>
<path style=" stroke:none;fill-rule:nonzero;fill:rgb(13.729858%,12.159729%,12.548828%);fill-opacity:1;" d="M 226.542969 55.683594 L 230.472656 55.683594 C 233.6875 55.683594 235.609375 53.796875 235.609375 50.636719 L 235.609375 49.917969 C 235.609375 46.652344 233.734375 44.785156 230.472656 44.785156 L 226.542969 44.785156 Z M 226.542969 63.363281 L 224.667969 63.363281 L 224.667969 42.933594 L 230.53125 42.933594 C 234.757812 42.933594 237.484375 45.675781 237.484375 49.917969 L 237.484375 50.664062 C 237.484375 54.882812 234.820312 57.503906 230.53125 57.503906 L 226.542969 57.503906 Z M 226.542969 63.363281 "/>
<path style=" stroke:none;fill-rule:nonzero;fill:rgb(13.729858%,12.159729%,12.548828%);fill-opacity:1;" d="M 242.636719 63.363281 L 240.757812 63.363281 L 240.757812 42.933594 L 242.636719 42.933594 Z M 242.636719 63.363281 "/>
<path style=" stroke:none;fill-rule:nonzero;fill:rgb(13.729858%,12.159729%,12.548828%);fill-opacity:1;" d="M 271.109375 63.648438 C 267.082031 63.648438 264.269531 60.71875 264.269531 56.519531 L 264.269531 49.714844 C 264.269531 45.519531 267.082031 42.589844 271.109375 42.589844 C 275.0625 42.589844 277.886719 45.449219 277.976562 49.542969 L 277.976562 49.636719 L 276.101562 49.636719 L 276.097656 49.546875 C 276.042969 46.472656 274.039062 44.410156 271.109375 44.410156 C 268 44.410156 266.148438 46.554688 266.148438 50.148438 L 266.148438 56.550781 C 266.148438 59.691406 268.140625 61.800781 271.109375 61.800781 C 274.09375 61.800781 276.097656 59.691406 276.097656 56.550781 L 276.097656 55.492188 L 271.042969 55.492188 L 271.042969 53.789062 L 277.976562 53.789062 L 277.976562 56.519531 C 277.976562 60.71875 275.152344 63.648438 271.109375 63.648438 "/>
<path style=" stroke:none;fill-rule:nonzero;fill:rgb(13.729858%,12.159729%,12.548828%);fill-opacity:1;" d="M 287.71875 63.703125 C 283.582031 63.703125 280.90625 60.875 280.90625 56.492188 L 280.90625 56.398438 L 282.753906 56.398438 L 282.753906 56.492188 C 282.753906 59.886719 284.609375 61.914062 287.71875 61.914062 C 290.089844 61.914062 292.621094 60.875 292.621094 57.957031 C 292.621094 55.273438 290.167969 54.65625 287.574219 54 C 284.597656 53.246094 281.222656 52.394531 281.222656 48.167969 C 281.222656 44.726562 283.734375 42.589844 287.773438 42.589844 C 290.929688 42.589844 294.296875 44.394531 294.296875 49.457031 L 294.296875 49.546875 L 292.421875 49.546875 L 292.421875 49.457031 C 292.421875 45.738281 289.992188 44.410156 287.71875 44.410156 C 284.808594 44.410156 283.070312 45.8125 283.070312 48.167969 C 283.070312 51.027344 285.605469 51.660156 288.285156 52.332031 C 291.339844 53.097656 294.5 53.890625 294.5 57.929688 C 294.5 61.492188 291.898438 63.703125 287.71875 63.703125 "/>
<path style=" stroke:none;fill-rule:nonzero;fill:rgb(13.729858%,12.159729%,12.548828%);fill-opacity:1;" d="M 206.839844 63.363281 L 204.605469 63.363281 L 204.578125 63.328125 L 197.476562 53.855469 L 195.378906 53.855469 L 195.378906 63.363281 L 193.5 63.363281 L 193.5 42.933594 L 195.378906 42.933594 L 195.378906 52.09375 L 197.503906 52.09375 L 203.566406 42.933594 L 205.714844 42.933594 L 199.070312 52.992188 Z M 206.839844 63.363281 "/>
</g>
</svg>
