<?xml version="1.0" encoding="utf-8"?>
<!-- Generator: Adobe Illustrator 25.2.3, SVG Export Plug-In . SVG Version: 6.00 Build 0)  -->
<svg version="1.1"
	 id="svg4298" sodipodi:docname="AlleLogos.svg" xmlns:cc="http://creativecommons.org/ns#" xmlns:dc="http://purl.org/dc/elements/1.1/" xmlns:inkscape="http://www.inkscape.org/namespaces/inkscape" xmlns:rdf="http://www.w3.org/1999/02/22-rdf-syntax-ns#" xmlns:sodipodi="http://sodipodi.sourceforge.net/DTD/sodipodi-0.dtd" xmlns:svg="http://www.w3.org/2000/svg"
	 xmlns="http://www.w3.org/2000/svg" xmlns:xlink="http://www.w3.org/1999/xlink" x="0px" y="0px" viewBox="0 0 405.3 418.9"
	 style="enable-background:new 0 0 405.3 418.9;" xml:space="preserve">
<style type="text/css">
	.st0{fill:#1D71B8;}
	.st1{fill:#FFFFFF;}
	.st2{fill:#9D9D9C;}
	.st3{clip-path:url(#SVGID_2_);}
	.st4{clip-path:url(#SVGID_4_);}
	.st5{fill:url(#path5451_1_);}
	.st6{fill:url(#path5489_1_);}
	.st7{clip-path:url(#SVGID_6_);}
	.st8{clip-path:url(#SVGID_8_);}
	.st9{clip-path:url(#SVGID_10_);}
	.st10{fill:url(#path5597_1_);}
	.st11{clip-path:url(#SVGID_12_);}
	.st12{clip-path:url(#SVGID_14_);}
	.st13{fill:url(#path5677_1_);}
	.st14{clip-path:url(#SVGID_16_);}
	.st15{fill:none;}
</style>
<g id="layer1" transform="translate(0,1782.2835)" inkscape:groupmode="layer" inkscape:label="Ebene 1">
	<g id="g5271" transform="matrix(0.69209594,0,0,-0.69209594,476.4957,-930.84244)">
		<path id="path5273" inkscape:connector-curvature="0" class="st0" d="M-273.5,1194c-37.3,18.4-79,28.7-123.1,28.7
			c-158,0-286.2-132.5-286.2-295.9c0-163.4,128.1-295.9,286.2-295.9c158,0,286.2,132.5,286.2,295.9c0,6.6-0.3,13.1-0.7,19.6
			L-273.5,1194z"/>
	</g>
	<g id="g5275" transform="matrix(0.69209594,0,0,-0.69209594,358.1716,-698.05122)">
		<path id="path5277" inkscape:connector-curvature="0" class="st1" d="M-239.3,1261.3c0-8.1-4.5-12.1-13.6-12.1
			c-9.3,0-13.9,4-13.9,12.1v98.6c0,12.2-12.1,18.3-36.4,18.3h-67.8c-24.8,0-37.2-6.1-37.2-18.3v-98.6c0-8.1-4.4-12.1-13.3-12.1
			c-9.1,0-13.6,4-13.6,12.1v98.6c0,27.1,23.9,40.7,71.7,40.7h52.2c48,0,72-13.6,72-40.7V1261.3z"/>
	</g>
	<g id="g5279" transform="matrix(0.69209594,0,0,-0.69209594,415.62769,-700.40492)">
		<path id="path5281" inkscape:connector-curvature="0" class="st1" d="M-255.9,1260.6l-63-117.6c-1.4-2.8-3.7-4.9-6.8-6.5
			c-3.1-1.5-6.7-2.3-10.6-2.3c-3.8,0-7.2,0.8-10.4,2.3c-3.1,1.6-5.6,3.9-7.4,7.1l-72.9,131.3c-0.4,1.2-0.5,2.5-0.5,4
			c0,3.1,1.5,5.6,4.6,7.5c3.1,1.9,6.4,2.9,10,2.9c2.5,0,4.9-0.5,7-1.4c2.2-0.9,3.7-2.5,4.6-4.7l65.7-123.3l61.6,118.9
			c1.6,3.4,4.1,5.9,7.5,7.6c3.4,1.7,6.9,2.5,10.5,2.5c3.6,0,6.8-0.8,9.8-2.3c3-1.5,5.3-3.8,6.9-6.7l63-120l64,123.3
			c1.1,2.1,2.7,3.6,4.8,4.7c2.2,1.1,4.6,1.7,7.3,1.7c1.6,0,3.3-0.3,5.1-0.9c1.8-0.6,3.4-1.3,4.7-2.2c1.4-0.9,2.5-2,3.4-3.3
			c0.9-1.3,1.3-2.7,1.3-4.2c0-1.2-0.3-2.6-0.8-4.2l-73.2-130.8c-1.6-3.2-4.1-5.6-7.4-7.2c-3.3-1.6-6.8-2.4-10.6-2.4
			c-3.4,0-6.8,0.8-10.1,2.3c-3.3,1.6-5.8,3.9-7.4,6.9L-255.9,1260.6z"/>
	</g>
	<g id="g5383" transform="matrix(0.61164405,0,0,-0.61164405,-182.06445,81.760619)">
		<g>
			<defs>
				<rect id="SVGID_1_" x="905.4" y="2016.8" width="3148.6" height="1054.1"/>
			</defs>
			<clipPath id="SVGID_2_">
				<use xlink:href="#SVGID_1_"  style="overflow:visible;"/>
			</clipPath>
		</g>
	</g>
	<g id="g5417" transform="matrix(0.61164405,0,0,-0.61164405,-182.06445,81.760619)">
		<g>
			<defs>
				<rect id="SVGID_3_" x="905.4" y="2016.8" width="3148.6" height="1054.1"/>
			</defs>
			<clipPath id="SVGID_4_">
				<use xlink:href="#SVGID_3_"  style="overflow:visible;"/>
			</clipPath>
		</g>
	</g>
	<g id="g5497" transform="matrix(0.61164405,0,0,-0.61164405,-182.06445,81.760619)">
		<g>
			<defs>
				<rect id="SVGID_5_" x="905.4" y="2016.8" width="3148.6" height="1054.1"/>
			</defs>
			<clipPath id="SVGID_6_">
				<use xlink:href="#SVGID_5_"  style="overflow:visible;"/>
			</clipPath>
		</g>
	</g>
	<g id="g5515" transform="matrix(0.61164405,0,0,-0.61164405,-182.06445,81.760619)">
		<g>
			<defs>
				<rect id="SVGID_7_" x="905.4" y="2016.8" width="3148.6" height="1054.1"/>
			</defs>
			<clipPath id="SVGID_8_">
				<use xlink:href="#SVGID_7_"  style="overflow:visible;"/>
			</clipPath>
		</g>
	</g>
	<g id="g5551" transform="matrix(0.61164405,0,0,-0.61164405,-182.06445,81.760619)">
		<g>
			<defs>
				<rect id="SVGID_9_" x="905.4" y="2016.8" width="3148.6" height="1054.1"/>
			</defs>
			<clipPath id="SVGID_10_">
				<use xlink:href="#SVGID_9_"  style="overflow:visible;"/>
			</clipPath>
		</g>
	</g>
	<g id="g5603" transform="matrix(0.61164405,0,0,-0.61164405,-182.06445,81.760619)">
		<g>
			<defs>
				<rect id="SVGID_11_" x="905.4" y="2016.8" width="3148.6" height="1054.1"/>
			</defs>
			<clipPath id="SVGID_12_">
				<use xlink:href="#SVGID_11_"  style="overflow:visible;"/>
			</clipPath>
		</g>
	</g>
	<g id="g5635" transform="matrix(0.61164405,0,0,-0.61164405,-182.06445,81.760619)">
		<g>
			<defs>
				<rect id="SVGID_13_" x="905.4" y="2016.8" width="3148.6" height="1054.1"/>
			</defs>
			<clipPath id="SVGID_14_">
				<use xlink:href="#SVGID_13_"  style="overflow:visible;"/>
			</clipPath>
		</g>
	</g>
	<g id="g5683" transform="matrix(0.61164405,0,0,-0.61164405,-182.06445,81.760619)">
		<g>
			<defs>
				<rect id="SVGID_15_" x="905.4" y="2016.8" width="3148.6" height="1054.1"/>
			</defs>
			<clipPath id="SVGID_16_">
				<use xlink:href="#SVGID_15_"  style="overflow:visible;"/>
			</clipPath>
		</g>
	</g>
</g>
</svg>
