<svg width="500" height="100" viewBox="0 0 500 100" fill="none" xmlns="http://www.w3.org/2000/svg">
<path d="M118.656 62.0743C114.445 62.0507 110.335 60.7764 106.847 58.4119C103.356 56.0475 100.643 52.6989 99.0475 48.7885C97.4522 44.8784 97.0469 40.5817 97.8825 36.4406C98.718 32.2996 100.759 28.4997 103.743 25.5203C106.729 22.541 110.527 20.5159 114.658 19.7C118.791 18.8844 123.071 19.315 126.957 20.9371C130.846 22.5594 134.169 25.3008 136.506 28.8156C138.843 32.3302 140.089 36.4607 140.089 40.6858C140.067 46.3719 137.797 51.8169 133.78 55.8266C129.761 59.836 124.322 62.0828 118.656 62.0743ZM118.656 5.92969C113.134 5.93486 107.693 7.26399 102.788 9.80639C97.8825 12.3487 93.6541 16.0307 90.452 20.5454C87.2529 25.0602 85.1744 30.2769 84.3896 35.761C83.6063 41.2453 84.1402 46.8379 85.947 52.0733C87.7539 57.3085 90.7815 62.0347 94.7769 65.858C98.7723 69.6814 103.622 72.491 108.919 74.0531C114.217 75.6153 119.809 75.8842 125.231 74.8379C130.653 73.7917 135.748 71.4604 140.089 68.0383V73.9807H153.498V40.6858C153.45 31.4512 149.755 22.6124 143.225 16.106C136.694 9.59951 127.859 5.95567 118.656 5.97298" fill="#010101"/>
<path d="M224.87 5.96877C221.788 5.96671 218.739 6.57903 215.895 7.77013C213.054 8.96124 210.475 10.7074 208.311 12.907C205.079 9.62534 200.95 7.37851 196.445 6.45006C191.941 5.52159 187.264 5.95321 183.002 7.69042C178.743 9.42759 175.091 12.3926 172.51 16.2107C169.927 20.0288 168.53 24.5291 168.496 29.1431V74.0523H181.905V29.1648C181.905 26.5409 182.942 24.0245 184.791 22.1691C186.641 20.3138 189.148 19.2716 191.764 19.2716C194.379 19.2716 196.886 20.3138 198.735 22.1691C200.584 24.0245 201.623 26.5409 201.623 29.1648V74.0739H215.009V29.1648C215.009 26.5409 216.049 24.0245 217.897 22.1691C219.746 20.3138 222.254 19.2716 224.87 19.2716C227.484 19.2716 229.992 20.3138 231.841 22.1691C233.69 24.0245 234.73 26.5409 234.73 29.1648V74.0739H248.148V29.1648C248.114 22.9952 245.645 17.0906 241.282 12.7434C236.919 8.39592 231.018 5.96008 224.87 5.96877Z" fill="#010101"/>
<path d="M472.702 5.96875C469.622 5.96789 466.572 6.58076 463.729 7.7718C460.887 8.96288 458.308 10.7083 456.143 12.907C452.911 9.62534 448.782 7.37849 444.278 6.45004C439.772 5.52157 435.095 5.9532 430.836 7.6904C426.576 9.42759 422.924 12.3926 420.341 16.2107C417.76 20.0288 416.362 24.5291 416.328 29.1431V74.0523H429.736V29.1648C429.736 26.5409 430.776 24.0245 432.624 22.1691C434.473 20.3138 436.981 19.2716 439.597 19.2716C442.21 19.2716 444.719 20.3138 446.568 22.1691C448.416 24.0245 449.456 26.5409 449.456 29.1648V74.0739H462.875V29.1648C462.96 26.5989 464.034 24.1666 465.874 22.3817C467.711 20.5966 470.172 19.5988 472.729 19.5988C475.288 19.5988 477.746 20.5966 479.584 22.3817C481.424 24.1666 482.498 26.5989 482.583 29.1648V74.0739H496.002V29.1648C495.957 22.995 493.482 17.0937 489.116 12.7483C484.752 8.40286 478.851 5.96572 472.702 5.96875Z" fill="#010101"/>
<path d="M293.53 19.4256C297.9 19.4338 302.165 20.7775 305.754 23.2776C309.344 25.7779 312.091 29.316 313.627 33.4212L326.204 28.7885C323.394 21.1421 317.993 14.7303 310.948 10.6737C303.903 6.61705 295.663 5.17364 287.664 6.59574C279.666 8.01782 272.421 12.215 267.193 18.4536C261.968 24.6922 259.093 32.5754 259.07 40.7256C259.049 48.8757 261.882 56.7743 267.076 63.0409C272.269 69.3076 279.491 73.5436 287.482 75.0086C295.471 76.4738 303.72 75.0747 310.788 71.056C317.854 67.0374 323.287 60.6547 326.139 53.0237L313.584 48.315C312.232 52.0004 309.901 55.2434 306.841 57.6916C303.78 60.1396 300.11 61.699 296.229 62.2001C292.347 62.7011 288.403 62.1246 284.825 60.5333C281.247 58.9419 278.173 56.3967 275.937 53.1745C273.7 49.9522 272.387 46.1761 272.139 42.257C271.891 38.3381 272.719 34.426 274.533 30.9464C276.348 27.4669 279.079 24.5532 282.427 22.5218C285.776 20.4906 289.616 19.4197 293.53 19.4256Z" fill="#010101"/>
<path d="M38.6161 61.82C34.4054 61.7964 30.296 60.5221 26.8063 58.1577C23.3168 55.7932 20.6031 52.4446 19.008 48.5344C17.4127 44.6242 17.0076 40.3275 17.8434 36.1864C18.6792 32.0453 20.7185 28.2454 23.7044 25.2662C26.69 22.2868 30.4883 20.2616 34.6198 19.446C38.7512 18.6303 43.031 19.0607 46.919 20.683C50.807 22.3052 54.1291 25.0467 56.4664 28.5613C58.8033 32.076 60.0495 36.2065 60.0495 40.4316C60.0242 46.1169 57.7542 51.5601 53.7368 55.5692C49.7192 59.5781 44.282 61.8259 38.6161 61.82ZM38.6161 5.71878C33.0947 5.72396 27.6546 7.05308 22.7488 9.59541C17.8431 12.1377 13.6139 15.8197 10.4136 20.3345C7.21343 24.8492 5.13466 30.0659 4.35095 35.5502C3.56705 41.0343 4.10081 46.6271 5.90753 51.8623C7.71426 57.0975 10.7417 61.8238 14.7377 65.647C18.7335 69.4704 23.5823 72.2802 28.8796 73.8422C34.177 75.4043 39.7697 75.6734 45.1917 74.6272C50.6139 73.5808 55.7086 71.2494 60.0495 67.8274V94.3465H73.4593V40.41C73.3996 31.1808 69.7008 22.351 63.1714 15.8505C56.6419 9.34982 47.8139 5.70715 38.6161 5.71878Z" fill="#010101"/>
<path d="M370.925 6.21096C364.059 6.24623 357.356 8.31564 351.665 12.1571C345.973 15.9986 341.548 21.4407 338.946 27.7955C336.344 34.151 335.684 41.134 337.048 47.864C338.412 54.594 341.739 60.7689 346.61 65.6095C351.48 70.4502 357.676 73.7388 364.414 75.0615C371.153 76.3836 378.131 75.6799 384.471 73.0389C390.809 70.3978 396.224 65.9385 400.03 60.2228C403.836 54.5071 405.863 47.7923 405.856 40.9254C405.808 31.6953 402.106 22.8607 395.56 16.3549C389.013 9.84871 380.156 6.20123 370.925 6.21096Z" fill="#0005FF"/>
</svg>
